<svg xmlns="http://www.w3.org/2000/svg" viewBox="0 0 495.2 587.5999999999999" font-family="'Malgun Gothic','Apple SD Gothic Neo',sans-serif">
<defs><pattern id="hatch" width="8" height="8" patternTransform="rotate(45)" patternUnits="userSpaceOnUse"><rect width="8" height="8" fill="#f3f0e8"/><line x1="0" y1="0" x2="0" y2="8" stroke="#ddd6c6" stroke-width="2"/></pattern></defs>
<rect width="495.2" height="587.5999999999999" fill="#faf9f6"/>
<rect x="46" y="41.4" width="201.6" height="128.79999999999998" fill="#fdfcf6" stroke="#3a352c" stroke-width="2"/>
<text x="146.8" y="102.79999999999998" font-size="13" text-anchor="middle" fill="#3a352c" font-weight="700">침실2</text>
<text x="146.8" y="118.79999999999998" font-size="9.5" text-anchor="middle" fill="#9a917f">8.3㎡</text>
<rect x="247.6" y="41.4" width="67.2" height="128.79999999999998" fill="#f3f0ea" stroke="#3a352c" stroke-width="2"/>
<text x="281.2" y="109.79999999999998" font-size="10.5" text-anchor="middle" fill="#3a352c" font-weight="700">현관</text>
<rect x="314.8" y="41.4" width="134.4" height="128.79999999999998" fill="#fdfcf6" stroke="#3a352c" stroke-width="2"/>
<text x="382" y="102.79999999999998" font-size="13" text-anchor="middle" fill="#3a352c" font-weight="700">침실3</text>
<text x="382" y="118.79999999999998" font-size="9.5" text-anchor="middle" fill="#9a917f">5.5㎡</text>
<rect x="46" y="170.2" width="201.6" height="128.79999999999998" fill="#e9f1f5" stroke="#3a352c" stroke-width="2"/>
<text x="146.8" y="231.59999999999997" font-size="13" text-anchor="middle" fill="#3a352c" font-weight="700">주방·식당</text>
<text x="146.8" y="247.59999999999997" font-size="9.5" text-anchor="middle" fill="#9a917f">8.3㎡</text>
<rect x="247.6" y="170.2" width="67.2" height="128.79999999999998" fill="#f3f0ea" stroke="#3a352c" stroke-width="2"/>
<text x="281.2" y="238.59999999999997" font-size="10.5" text-anchor="middle" fill="#3a352c" font-weight="700">복도</text>
<rect x="314.8" y="170.2" width="134.4" height="128.79999999999998" fill="#e9f1f5" stroke="#3a352c" stroke-width="2"/>
<text x="382" y="231.59999999999997" font-size="13" text-anchor="middle" fill="#3a352c" font-weight="700">욕실</text>
<text x="382" y="247.59999999999997" font-size="9.5" text-anchor="middle" fill="#9a917f">5.5㎡</text>
<rect x="46" y="298.99999999999994" width="235.20000000000002" height="201.6" fill="#fbf6ec" stroke="#3a352c" stroke-width="2"/>
<text x="163.60000000000002" y="396.79999999999995" font-size="13" text-anchor="middle" fill="#3a352c" font-weight="700">거실</text>
<text x="163.60000000000002" y="412.79999999999995" font-size="9.5" text-anchor="middle" fill="#9a917f">15.1㎡</text>
<rect x="281.20000000000005" y="298.99999999999994" width="168" height="201.6" fill="#fdfcf6" stroke="#3a352c" stroke-width="2"/>
<text x="365.20000000000005" y="396.79999999999995" font-size="13" text-anchor="middle" fill="#3a352c" font-weight="700">안방</text>
<text x="365.20000000000005" y="412.79999999999995" font-size="9.5" text-anchor="middle" fill="#9a917f">10.8㎡</text>
<rect x="46" y="41.4" width="403.2" height="459.19999999999993" fill="none" stroke="#26221b" stroke-width="5"/>
<line x1="46" y1="25.4" x2="449.2" y2="25.4" stroke="#B8965A" stroke-width="1"/>
<line x1="46" y1="20.4" x2="46" y2="30.4" stroke="#B8965A" stroke-width="1"/>
<line x1="449.2" y1="20.4" x2="449.2" y2="30.4" stroke="#B8965A" stroke-width="1"/>
<text x="247.6" y="19.4" font-size="11" text-anchor="middle" fill="#8a713f">7.2m</text>
<line x1="30" y1="41.4" x2="30" y2="500.5999999999999" stroke="#B8965A" stroke-width="1"/>
<line x1="25" y1="41.4" x2="35" y2="41.4" stroke="#B8965A" stroke-width="1"/>
<line x1="25" y1="500.5999999999999" x2="35" y2="500.5999999999999" stroke="#B8965A" stroke-width="1"/>
<text x="24" y="270.99999999999994" font-size="11" text-anchor="middle" fill="#8a713f" transform="rotate(-90 24 270.99999999999994)">8.2m</text>
<line x1="46" y1="533.5999999999999" x2="449.2" y2="533.5999999999999" stroke="#d9d2c2" stroke-width="1"/>
<text x="46" y="551.5999999999999" font-size="15" font-weight="800" fill="#26221b">표준 59㎡ B타입 (2베이)</text>
<text x="46" y="570.5999999999999" font-size="11.5" fill="#7a7263">전용 59㎡ · 방 3 · 욕실 1 — ECOREAN 자체 작성 표준 도면 (실측 아님·밑그림용)</text>
<text x="449.2" y="551.5999999999999" font-size="11" text-anchor="end" fill="#B8965A" font-weight="800" letter-spacing="2">ECOREAN</text>
</svg>